<svg width="56.693" height="56.693" xmlns="http://www.w3.org/2000/svg">

 <g>
  <title>background</title>
  <rect fill="none" id="canvas_background" height="402" width="582" y="-1" x="-1"/>
 </g>
 <g>
  <title>Layer 1</title>
  <path fill="#da4835" id="svg_2" d="m23.761,27.96c0.629,0 1.16,-0.248 1.57,-0.717c0.645,-0.732 0.928,-1.936 0.76,-3.215c-0.301,-2.287 -1.932,-4.186 -3.637,-4.236l-0.068,0c-0.604,0 -1.141,0.246 -1.551,0.715c-0.637,0.725 -0.903,1.871 -0.736,3.146c0.299,2.283 1.965,4.256 3.635,4.307l0.027,0z"/>
  <path fill="#da4835" id="svg_3" d="m25.622,34.847c-0.168,-0.113 -0.342,-0.232 -0.521,-0.355c-0.525,-0.162 -1.084,-0.246 -1.654,-0.254l-0.072,0c-2.625,0 -4.929,1.592 -4.929,3.406c0,1.971 1.972,3.518 4.491,3.518c3.322,0 5.006,-1.145 5.006,-3.404c0,-0.215 -0.025,-0.436 -0.076,-0.656c-0.225,-0.88 -1.03,-1.427 -2.245,-2.255z"/>
  <path fill="#da4835" stroke="null" id="svg_4" d="m28.347148,0.05918c-15.622576,0 -28.285122,12.661397 -28.285122,28.282825s12.663694,28.285123 28.285122,28.285123c15.619131,0 28.282825,-12.663695 28.282825,-28.285123s-12.664843,-28.282825 -28.282825,-28.282825zm-2.57409,43.673378c-1.127959,0.325064 -2.344363,0.491616 -3.622793,0.491616c-1.422009,0 -2.791182,-0.164255 -4.066166,-0.487021c-2.469564,-0.621411 -4.295893,-1.803356 -5.145882,-3.325297c-0.367563,-0.659316 -0.553642,-1.359983 -0.553642,-2.08592c0,-0.74891 0.179187,-1.507008 0.531818,-2.259364c1.355389,-2.883072 4.919601,-4.820819 8.869755,-4.820819c0.040202,0 0.078107,0 0.114863,0c-0.320469,-0.565128 -0.477832,-1.150932 -0.477832,-1.765451c0,-0.307834 0.040202,-0.619114 0.120607,-0.934988c-4.141976,-0.096485 -7.243289,-3.130029 -7.243289,-7.129574c0,-2.826789 2.257067,-5.57662 5.485878,-6.689647c0.96715,-0.334253 1.95153,-0.504251 2.920977,-0.504251l8.859417,0c0.303239,0 0.567425,0.195268 0.661613,0.482426c0.096485,0.289456 -0.009189,0.603033 -0.253848,0.781071l-1.981394,1.433496c-0.119458,0.084999 -0.263037,0.132093 -0.410062,0.132093l-0.708707,0c0.917759,1.096946 1.454171,2.660237 1.454171,4.419945c0,1.942341 -0.982082,3.777859 -2.768209,5.175747c-1.37951,1.075122 -1.435793,1.368024 -1.435793,1.985989c0.018378,0.338847 0.980934,1.43809 2.038826,2.187c2.471861,1.74937 3.391917,3.461984 3.391917,6.326678c0,2.980706 -2.27085,5.567431 -5.782226,6.58627zm20.011508,-15.197582c0,0.383644 -0.313577,0.694924 -0.697221,0.694924l-5.034465,0l0,5.036762c0,0.385941 -0.31128,0.697221 -0.697221,0.697221l-1.433496,0c-0.385941,0 -0.697221,-0.31128 -0.697221,-0.697221l0,-5.036762l-5.03791,0c-0.381347,0 -0.694924,-0.31128 -0.694924,-0.694924l0,-1.435793c0,-0.383644 0.313577,-0.697221 0.694924,-0.697221l5.036762,0l0,-5.034465c0,-0.385941 0.31128,-0.697221 0.697221,-0.697221l1.433496,0c0.385941,0 0.697221,0.31128 0.697221,0.697221l0,5.034465l5.034465,0c0.383644,0 0.697221,0.313577 0.697221,0.697221l0,1.435793l0.001149,0z"/>
 </g>
</svg>